<?xml version="1.0"?><svg width="744.09448" height="1052.3622" xmlns="http://www.w3.org/2000/svg" xmlns:xlink="http://www.w3.org/1999/xlink">
 <title>airplane</title>
 <defs>
  <linearGradient id="linearGradient2187">
   <stop stop-color="#000000" offset="0" id="stop2189"/>
   <stop stop-color="#000000" stop-opacity="0" offset="1" id="stop2191"/>
  </linearGradient>
  <linearGradient y2="0.63865" y1="0.454155" xlink:href="#linearGradient2187" x2="1.148226" x1="-0.018399" id="linearGradient2451"/>
  <linearGradient y2="0" x2="1" y1="0" x1="0" id="svg_6">
   <stop offset="0.328125" stop-opacity="0.996094" stop-color="#ffffff"/>
   <stop offset="1" stop-opacity="0.996094" stop-color="#56ffff"/>
  </linearGradient>
  <linearGradient y2="0" x2="1" y1="0" x1="0" id="svg_11">
   <stop offset="0.050781" stop-opacity="0.996094" stop-color="#ffffff"/>
   <stop offset="0.386719" stop-opacity="0.996094" stop-color="#ffffff"/>
   <stop offset="0.78125" stop-opacity="0.996094" stop-color="#56ffff"/>
   <stop offset="0.960938" stop-opacity="0.996094" stop-color="#56ffff"/>
  </linearGradient>
  <linearGradient y2="0" x2="1" y1="0" x1="0" id="svg_12">
   <stop offset="0" stop-opacity="0.996094" stop-color="#ffffff"/>
   <stop offset="0" stop-opacity="0.996094" stop-color="#ffffff"/>
   <stop offset="0.324219" stop-opacity="0.996094" stop-color="#ffffff"/>
   <stop offset="0.785156" stop-opacity="0.996094" stop-color="#56ffff"/>
   <stop offset="0.949219" stop-opacity="0.996094" stop-color="#56ffff"/>
  </linearGradient>
  <linearGradient y2="0" x2="1" y1="0" x1="0" id="svg_13">
   <stop offset="0" stop-color="#ffffff"/>
   <stop offset="0.425781" stop-opacity="0.996094" stop-color="#ffffff"/>
   <stop offset="0.984375" stop-opacity="0.996094" stop-color="#56ffff"/>
   <stop offset="1" stop-opacity="0.996094" stop-color="#56ffff"/>
  </linearGradient>
 </defs>
 <g>
  <title>Layer 1</title>
  <path fill="#ffffff" fill-rule="evenodd" stroke="#000000" stroke-width="3.875" stroke-miterlimit="4" id="path1366" d="m200.702255,391.354065l3.064758,-15.323822l-10.726669,0l-7.661911,10.726654l15.323822,4.597168z"/>
  <path fill="#7171af" fill-rule="evenodd" stroke="#000000" stroke-width="1.733899px" stroke-opacity="0.275676" id="path1370" d="m376.925995,501.685455c0,0 -12.259033,6.129547 -9.194275,-1.532379c3.064758,-7.661896 12.259033,-9.194275 1.532379,-7.661896c-10.726654,1.532379 -1.532379,9.194275 -10.726654,1.532379c-9.194275,-7.661896 7.661896,-12.259064 7.661896,-12.259064l21.453339,-1.532349l-10.726685,21.453308z"/>
  <path fill="url(#svg_6)" fill-rule="evenodd" stroke="#000000" stroke-width="3.875" stroke-miterlimit="4" id="path1368" d="m375.393616,498.620697c3.064789,16.856171 18.38858,15.323822 18.38858,15.323822c0,0 10.726654,1.532349 24.518066,0c13.791443,-1.53241 21.453339,1.532349 27.582855,-3.064789c6.129517,-4.597137 7.661926,-3.064728 10.726685,-9.194275c3.064758,-6.129517 4.597137,-10.726654 3.064758,-15.323792c-1.532379,-4.597168 -1.532379,-10.726685 -7.661926,-13.791443c-6.129517,-3.064728 -13.791412,-3.064728 -13.791412,-3.064728l-50.568542,4.597107c0,0 -6.129517,-1.532379 -9.194275,7.661896c-3.064789,9.194305 -3.064789,16.856201 -3.064789,16.856201z"/>
  <path fill="url(#svg_12)" fill-rule="evenodd" stroke="#000000" stroke-width="3.875" stroke-miterlimit="4" id="path1358" d="m144.004181,441.922638c13.791412,7.661896 81.216156,30.647583 87.345673,30.647583c6.129532,0 39.841919,4.597137 47.503815,4.597137c7.661896,0 85.813293,-3.064758 124.122803,-6.129517c38.309509,-3.064758 84.280914,-9.194275 110.33139,-10.726654c26.050476,-1.532379 117.993286,-9.194275 147.108521,-13.791412c29.115234,-4.597137 50.568604,-24.518097 50.568604,-24.518097c0,0 6.129517,-4.597137 4.597107,-10.726654c-1.53241,-6.129547 -27.582825,-18.38858 -27.582825,-18.38858c0,0 -4.597168,-6.129547 -22.985718,-10.726654c-18.38855,-4.597137 -22.985718,-6.129547 -36.777161,-7.661896c-13.791382,-1.532379 -95.007568,4.597137 -127.187561,7.661896c-32.179993,3.064758 -199.209473,18.38855 -199.209473,18.38855c0,0 -30.647583,3.064758 -58.230438,0c-27.582855,-3.064758 -29.11525,-3.064758 -47.503815,-12.259033c-18.38855,-9.194275 -96.539955,-84.280945 -96.539955,-84.280945l-19.920959,4.597168l64.359993,114.928528l-7.661911,1.532379c0,0 1.532379,7.661896 7.661911,16.856201z"/>
  <path fill="#000000" fill-opacity="0.275676" fill-rule="evenodd" stroke-width="1px" id="path2209" d="m376.925995,462.246582c0,0 88.878082,-21.453308 113.396149,-19.920929c24.518066,1.532379 6.129547,12.259033 6.129547,12.259033c0,0 -15.323822,7.661896 -32.179993,6.129547c-19.920959,7.661896 -87.345703,1.532349 -87.345703,1.532349z"/>
  <path fill="url(#svg_11)" fill-rule="evenodd" stroke="#000000" stroke-width="3.875" stroke-miterlimit="4" id="path1360" d="m338.616486,469.505493c6.129547,-4.597168 101.137115,-18.38858 107.266632,-18.38858c6.129517,0 16.856201,3.064758 10.726685,7.661896c-6.129517,4.597137 -332.526581,101.137085 -332.526581,101.137085c0,0 -24.518074,3.064758 -29.115219,-4.597168c-4.597153,-7.661865 -26.050476,-26.050415 -26.050476,-26.050415l18.388573,-1.532349l21.453323,16.85614l229.857063,-75.086609z"/>
  <path fill="url(#svg_13)" fill-rule="evenodd" stroke="#000000" stroke-width="3.875" stroke-miterlimit="4" id="path1362" d="m497.98407,380.627411l22.985718,-64.359985l-22.985718,-30.647614l-15.323822,0l12.259064,30.647614l-55.16571,70.489471l58.230469,-6.129486z"/>
  <path fill="#ffffff" fill-rule="evenodd" stroke="#000000" stroke-width="3.875" stroke-miterlimit="4" id="path1364" d="m176.184158,438.857849l-131.784718,32.179993l-16.85618,-1.532349c0,0 -9.194281,-3.064789 -1.532381,-6.129547c7.6619,-3.064758 105.734253,-27.582855 105.734253,-27.582855c0,0 16.856186,-6.129517 27.58284,-3.064758c10.726669,3.064758 16.856186,6.129517 16.856186,6.129517z"/>
  <path fill="none" fill-opacity="0.75" fill-rule="evenodd" stroke="#000000" stroke-width="8.875" stroke-miterlimit="4" stroke-dasharray="8.8750000 8.8750000 " stroke-dashoffset="0" id="path1372" d="m222.155579,446.519775c0,0 332.52655,-26.050476 372.368469,-29.115234"/>
  <path fill="#000000" fill-opacity="0.221622" fill-rule="evenodd" stroke="#000000" stroke-width="2.625" stroke-miterlimit="4" id="path1374" d="m638.963074,400.54834l1.532349,9.194275l16.856201,-1.532349c0,0 3.064758,1.532349 15.323853,-4.597168c12.259033,-6.129517 13.791382,-10.726654 13.791382,-10.726654l-9.194275,-6.129547c0,0 1.53241,6.129547 -7.661926,7.661926c-9.194275,1.532379 -30.647583,6.129517 -30.647583,6.129517z"/>
  <path fill="url(#linearGradient2451)" fill-rule="evenodd" stroke-width="1px" id="path2185" d="m439.753601,508.000885c0,0 -5.231873,-4.334229 -6.129517,-12.444946c-3.064758,-9.194275 -1.439423,-10.184875 3.064758,-16.856201c6.129517,-6.129517 6.129517,-7.661896 10.726654,-4.597137c4.597137,3.064758 8.296631,4.597137 7.661926,12.259064c1.532379,7.661896 2.074158,12.800812 -4.055359,15.86557c-3.420654,5.231873 -11.268463,5.773651 -11.268463,5.773651z"/>
  <path fill="#000000" fill-opacity="0.275676" fill-rule="evenodd" stroke-width="1px" id="path2199" d="m108.759422,546.124512l7.661911,7.661865l199.209465,-70.489502c0,0 -182.353271,56.69812 -191.547577,59.762817c-9.194275,3.064819 -15.323799,3.064819 -15.323799,3.064819z"/>
  <path fill="#000000" fill-opacity="0.275676" fill-rule="evenodd" stroke-width="1px" id="path2201" d="m496.451691,317.799805l19.920929,-1.532379c0,0 -3.064758,-3.064758 -18.38855,13.791412c-15.323822,16.856201 -33.712372,35.244751 -33.712372,35.244751l32.179993,-47.503784z"/>
  <path fill="#000000" fill-opacity="0.275676" fill-rule="evenodd" stroke-width="1px" id="path2203" d="m148.601318,420.469299l82.748535,-16.856201c0,0 -35.244751,9.194305 -49.036163,16.856201c-13.791428,7.661896 -33.712372,0 -33.712372,0z"/>
  <path fill="#000000" fill-opacity="0.275676" fill-rule="evenodd" stroke-width="1px" id="path2205" d="m199.169876,402.080719c0,0 1.532379,3.064758 -18.38858,-12.259033c-19.920929,-15.323792 -76.619019,-73.55426 -76.619019,-73.55426l75.086639,84.280914c0,0 3.064774,7.661926 10.726685,6.129517c7.661896,-1.532379 9.194275,-4.597137 9.194275,-4.597137z"/>
  <path fill="#000000" fill-opacity="0.275676" fill-rule="evenodd" stroke-width="1px" id="path2207" d="m379.990753,490.958801c0,9.194275 0,12.259033 3.064789,15.323792c3.064758,3.064758 42.906647,-7.661896 42.906647,-7.661896c0,0 -15.323822,-1.532379 -29.115234,-4.597137c-13.791412,-3.064758 -16.856201,-3.064758 -16.856201,-3.064758z"/>
 </g>
</svg>