<?xml version="1.0"?><svg width="640" height="480" xmlns="http://www.w3.org/2000/svg">
 <title>fresh peach</title>
 <g>
  <title>Layer 1</title>
  <path id="svg_5" stroke-width="6.036" stroke-miterlimit="10" stroke="url(#svg_6)" fill-rule="evenodd" fill="none" d="m237.323517,113.213272c-23.9048,2.762131 -44.336655,9.982437 -61.289063,20.817719c-17.603546,11.043137 -31.729813,26.125519 -41.510544,46.943237c-10.647858,19.752716 -19.994461,48.639297 -18.688797,75.194443c1.302254,26.337646 12.170532,58.409607 27.599091,83.048035c15.650101,23.791901 36.948013,48.221375 63.897095,60.962738c38.539139,23.300964 153.138123,21.64621 183.130402,17.608063l0.038544,-3.050842c26.214813,-56.535675 36.669403,-75.198334 48.003265,-123.250183c4.998901,-33.136932 0.835632,-74.310852 -21.876404,-112.001541c-19.126282,-29.948334 -67.811798,-55.43853 -98.231567,-66.69487c-29.998871,-10.834221 -48.928345,16.386139 -81.072021,0.423203z" clip-rule="evenodd"/>
  <switch>
   <g>
    <path stroke-width="0.036" stroke-miterlimit="10" stroke="#000000" fill-rule="evenodd" d="m292.565887,112.216995c14.794983,5.721008 29.785004,13.019005 45.761993,21.106003c15.785004,8.283005 32.940002,20.119003 48.328003,27.220001c14.790009,6.115005 28.209991,6.707001 39.446991,11.638c10.263,4.140991 16.960999,7.100006 24.656006,17.160004c7.298004,10.257004 14.200012,25.052002 20.718018,44.380997c1.970001,-14.792007 2.365997,-29.192993 2.760986,-43.986008c-0.203003,-14.992996 1.381012,-32.941986 -2.760986,-44.774994c-5.330017,-12.625992 -14.210999,-21.106003 -24.271027,-27.813995c-10.059998,-6.904999 -18.533997,-7.694 -35.304993,-12.229004c-17.549988,-5.127998 -46.550995,-17.357002 -66.46701,-16.174995c-20.129974,0.987999 -37.483978,9.075996 -52.867981,23.473991z" clip-rule="evenodd"/>
    <path stroke-width="0.036" stroke-miterlimit="10" stroke="#000000" fill-rule="evenodd" fill="#0aaa0a" d="m302.428864,112.216995c15.972015,5.522003 31.757996,11.834 46.547028,19.726013c14.596985,7.100998 28.411987,19.131989 42.217987,25.442993c13.612,6.115997 28.796997,5.917999 39.445007,10.850998c9.664001,3.944 14.802002,6.112991 21.5,14.791992c6.121979,8.679016 12.819977,19.923004 17.957977,35.901001c-0.600983,-16.174988 -0.792999,-29.983002 -1.380981,-42.21199c-0.996002,-12.427994 1.970001,-22.883011 -1.776001,-31.363998c-4.345001,-9.072998 -11.44101,-16.569 -20.515015,-22.487c-9.867981,-6.311005 -18.343994,-7.889 -34.523987,-13.018005c-16.563995,-6.115997 -43.19101,-17.948997 -61.544006,-17.948997c-18.53598,0.393997 -34.51297,6.903 -47.928009,20.316994z" clip-rule="evenodd"/>
    <path fill="black" stroke-width="0.036" stroke-miterlimit="10" stroke="#000000" fill-rule="evenodd" d="m346.418884,104.918999c8.678986,1.182999 29.781006,5.324005 39.84198,9.469002c9.663025,3.550003 9.267029,9.071999 17.945007,13.412003c7.89801,3.549988 21.5,4.143997 30.972015,10.848999c9.470001,6.708008 26.432983,29.391998 25.050995,29.983002c-2.363983,-0.789001 -24.26001,-21.697998 -35.902985,-27.813004c-12.028015,-5.522003 -24.057007,-2.368011 -33.132019,-5.721008c-9.471985,-4.536987 -13.420013,-11.637993 -22.484009,-16.765991c-10.069977,-5.324005 -31.36499,-10.651001 -34.918976,-12.820999c-3.949005,-2.367996 3.553009,-2.566002 12.627991,-0.592003z" clip-rule="evenodd"/>
    <path fill="black" stroke-width="0.036" stroke-miterlimit="10" stroke="#000000" fill-rule="evenodd" d="m293.945892,117.634544c-11.638,1.777 -23.471008,2.566002 -35.505005,3.156998c-12.622986,0 -34.716995,-0.198006 -37.278992,-1.379997c-2.764008,-1.579002 13.018997,-4.340004 20.710007,-5.917999c6.707993,-1.579002 13.610001,-3.355003 20.712997,-4.538002c-8.877014,-18.541 -13.414001,-30.179001 -13.612,-35.704002c-0.790009,-5.720001 7.496002,3.749001 10.454987,2.565002c1.773987,-1.578003 1.381012,-11.439003 4.932007,-11.244003c3.35199,-0.788998 13.214996,4.144005 15.977997,9.468002c2.169006,4.931 -4.537994,15.188004 -1.774017,22.487c1.969025,7.498001 7.098999,14.007004 15.382019,21.107002z" clip-rule="evenodd"/>
    <path stroke-width="0.036" stroke-miterlimit="10" stroke="#000000" fill-rule="evenodd" fill="#7f3f00" d="m280.92688,113.493546c-3.352997,-3.749001 -5.324005,-8.286003 -5.917999,-14.399002c-0.590027,-6.509003 1.776978,-17.358002 0.987976,-21.895004c-1.578003,-4.537994 -4.339966,-6.905998 -9.071991,-6.310997c-1.77597,4.338997 -3.946991,8.084999 -5.722992,9.071999c-2.36499,1.579002 -4.339996,0.393997 -6.705017,-1.379997c3.35202,7.099998 6.705017,13.411995 8.480042,19.725998c1.579956,5.917 3.156982,11.833 3.156982,16.961998c4.534973,1.184998 7.692017,0.789001 10.254974,0.987c2.368011,-0.790993 4.144043,-0.987999 4.538025,-2.761993z" clip-rule="evenodd"/>
    <path transform="rotate(-15 303.67932128906284,217.0685424804687) " fill="url(#svg_1)" stroke-width="0" stroke-miterlimit="10" stroke="#000000" fill-rule="evenodd" d="m256.42511,109.665558c14.401001,1.975006 26.430023,7.102997 38.470001,16.175003c11.632019,8.480988 22.087982,16.766998 30.562988,36.294006c7.89801,19.134995 15.59201,51.878983 16.97403,79.292969c0.587982,27.027023 -3.157013,54.443985 -12.039032,83.043991c9.278015,-15.777985 15.388031,-33.923981 18.343018,-55.22998c2.566986,-21.696991 3.552002,-49.900986 -0.782013,-71.60199c-4.740997,-22.287994 -12.820984,-44.578003 -27.417969,-59.173996c-15.582001,-14.992004 -36.696014,-24.063995 -64.111023,-28.800003z" clip-rule="evenodd"/>
   </g>
  </switch>
  <path id="svg_4" fill="url(#svg_6)" stroke-width="0" stroke-miterlimit="10" stroke="#000000" fill-rule="evenodd" d="m168.625427,261.929993c0.394012,18.737976 6.041168,49.500275 17.680145,68.636261c11.046021,18.936005 21.341492,32.678864 42.646423,45.895844c20.710022,13.02002 54.849792,17.231903 84.631775,17.826904c-6.312012,-3.944 -14.20105,-7.10202 -23.669006,-9.472015c-10.651001,-2.760986 -21.967773,-0.858887 -38.569214,-8.656342c-11.761414,-4.466125 -6.124115,-3.69577 -21.416504,-11.732544c-8.105713,-6.599548 -26.773865,-25.359192 -34.465881,-40.352173c-7.691956,-15.582031 -13.445435,-37.901581 -16.011414,-50.112915c-5.180176,-19.074036 -5.719177,-9.485657 -10.826324,-12.03302z" clip-rule="evenodd"/>
 </g>
 <defs>
  <linearGradient y2="0.984375" x2="1" y1="0" x1="0" id="svg_1">
   <stop stop-color="#ff0000" offset="0"/>
   <stop stop-color="#ffff00" offset="1"/>
  </linearGradient>
  <linearGradient y2="1" x2="1" y1="0" x1="0" id="svg_6">
   <stop stop-color="#ff0000" offset="0"/>
   <stop stop-color="#ffff00" offset="1"/>
  </linearGradient>
 </defs>
</svg>